<svg width="20" height="20" viewBox="0 0 20 20" fill="none" xmlns="http://www.w3.org/2000/svg">
<path fill-rule="evenodd" clip-rule="evenodd" d="M5.22581 1.75996C4.55081 1.84829 4.19415 2.01079 3.93915 2.25996C3.68498 2.50996 3.51915 2.85996 3.42831 3.52079C3.33498 4.20163 3.33331 5.10329 3.33331 6.39579V13.5375C3.66307 13.3118 4.02926 13.1446 4.41581 13.0433C4.85581 12.9275 5.36915 12.9275 6.12165 12.9283H16.6666V6.39663C16.6666 5.10329 16.665 4.20163 16.5716 3.52079C16.4808 2.85996 16.315 2.50996 16.0608 2.25996C15.8058 2.01079 15.4491 1.84829 14.7741 1.75996C14.0791 1.66829 13.1591 1.66663 11.8391 1.66663H8.16081C6.84081 1.66663 5.92081 1.66829 5.22581 1.75996ZM5.63248 5.49579C5.63248 5.12246 5.94081 4.81996 6.32165 4.81996H13.6783C13.8591 4.8184 14.0332 4.88857 14.1623 5.01509C14.2915 5.1416 14.3653 5.31416 14.3675 5.49496C14.3655 5.6759 14.2918 5.84867 14.1626 5.97537C14.0334 6.10207 13.8593 6.17235 13.6783 6.17079H6.32165C6.14084 6.17235 5.96679 6.10218 5.83762 5.97567C5.70844 5.84915 5.63468 5.67659 5.63248 5.49579ZM6.32165 7.97329C6.14084 7.97174 5.96679 8.0419 5.83762 8.16842C5.70844 8.29494 5.63468 8.46749 5.63248 8.64829C5.63248 9.02163 5.94081 9.32413 6.32165 9.32413H10.9191C11.1001 9.3259 11.2744 9.25584 11.4037 9.1293C11.5331 9.00275 11.6069 8.83007 11.6091 8.64913C11.6072 8.46804 11.5334 8.29514 11.404 8.16842C11.2746 8.0417 11.1002 7.97151 10.9191 7.97329H6.32165Z" fill="#007CFF"/>
<path d="M6.2275 14.2792H16.6667C16.6642 15.2208 16.6492 15.9242 16.5725 16.4792C16.4817 17.14 16.3158 17.49 16.0617 17.74C15.8067 17.9892 15.45 18.1517 14.775 18.24C14.08 18.3317 13.16 18.3333 11.84 18.3333H8.16084C6.84084 18.3333 5.92084 18.3317 5.22584 18.2408C4.55084 18.1517 4.19417 17.9892 3.93917 17.74C3.685 17.49 3.51917 17.14 3.42834 16.4792C3.39417 16.2292 3.37167 15.9483 3.35834 15.6292C3.47281 15.3172 3.6613 15.0376 3.90762 14.8145C4.15394 14.5914 4.45073 14.4315 4.7725 14.3483C5.01417 14.285 5.32834 14.2792 6.2275 14.2792Z" fill="#007CFF"/>
</svg>
