<svg width="20" height="20" viewBox="0 0 20 20" fill="none" xmlns="http://www.w3.org/2000/svg">
<path d="M3.33333 9.16667H6.66667C6.88768 9.16667 7.09964 9.25446 7.25592 9.41074C7.4122 9.56702 7.5 9.77899 7.5 10V16.6667C7.5 16.8877 7.4122 17.0996 7.25592 17.2559C7.09964 17.4122 6.88768 17.5 6.66667 17.5H5C4.36232 17.5 3.74874 17.2564 3.28478 16.8189C2.82083 16.3815 2.54158 15.7832 2.50417 15.1467L2.5 15V10C2.5 9.77899 2.5878 9.56702 2.74408 9.41074C2.90036 9.25446 3.11232 9.16667 3.33333 9.16667ZM17.5 10V15C17.5 15.6377 17.2564 16.2513 16.8189 16.7152C16.3815 17.1792 15.7832 17.4584 15.1467 17.4958L15 17.5H10C9.77899 17.5 9.56702 17.4122 9.41074 17.2559C9.25446 17.0996 9.16667 16.8877 9.16667 16.6667V10C9.16667 9.77899 9.25446 9.56702 9.41074 9.41074C9.56702 9.25446 9.77899 9.16667 10 9.16667H16.6667C16.8877 9.16667 17.0996 9.25446 17.2559 9.41074C17.4122 9.56702 17.5 9.77899 17.5 10ZM15 2.5C15.6377 2.49996 16.2513 2.7436 16.7152 3.18107C17.1792 3.61854 17.4584 4.21676 17.4958 4.85333L17.5 5V6.66667C17.5 6.88768 17.4122 7.09964 17.2559 7.25592C17.0996 7.4122 16.8877 7.5 16.6667 7.5H10C9.77899 7.5 9.56702 7.4122 9.41074 7.25592C9.25446 7.09964 9.16667 6.88768 9.16667 6.66667V3.33333C9.16667 3.11232 9.25446 2.90036 9.41074 2.74408C9.56702 2.5878 9.77899 2.5 10 2.5H15ZM7.5 3.33333V6.66667C7.5 6.88768 7.4122 7.09964 7.25592 7.25592C7.09964 7.4122 6.88768 7.5 6.66667 7.5H3.33333C3.11232 7.5 2.90036 7.4122 2.74408 7.25592C2.5878 7.09964 2.5 6.88768 2.5 6.66667V5C2.49996 4.36232 2.7436 3.74874 3.18107 3.28478C3.61854 2.82083 4.21676 2.54158 4.85333 2.50417L5 2.5H6.66667C6.88768 2.5 7.09964 2.5878 7.25592 2.74408C7.4122 2.90036 7.5 3.11232 7.5 3.33333Z" fill="#71757D"/>
</svg>
